# xmcd CD database file
#
# Track frame offsets:
#	150
#	10907
#	25510
#	37625
#	49785
#	58387
#	70792
#	83877
#	99825
#	118940
#	133322
#
# Disc length: 1910 seconds
#
# Revision: 0
# Processed by: cddbd v1.5.1PL0 Copyright (c) Steve Scherf et al.
# Submitted via: CDex 1.51
#
DISCID=8a07740b
DTITLE=June Christy - June's Got Rhythm
DYEAR=1958
DGENRE=Jazz
TTITLE0=Rock Me to Sleep
TTITLE1=Gypsy in my Soul
TTITLE2=I'm Glad There is You
TTITLE3=They Can't Take That Away From Me
TTITLE4=It Don't Mean a Thing
TTITLE5=My One and Only Love
TTITLE6=When Lights are Low
TTITLE7=I Can Mkae You Love Me (If you let me)
TTITLE8=Easy Living
TTITLE9=Blue Moon
TTITLE10=All God's Chilun Got Rhythm
EXTD=YEAR: 1958
EXTT0=
EXTT1=
EXTT2=
EXTT3=
EXTT4=
EXTT5=
EXTT6=
EXTT7=
EXTT8=
EXTT9=
EXTT10=
PLAYORDER=
